# xmcd
#
# Track frame offsets:
#	150
#	19029
#	38471
#	51223
#	74196
#	91218
#	107541
#	132288
#	148263
#	167422
#
# Disc length: 2404
#
# Revision: 1
# Processed by: cddbd v1.5.1PL0 Copyright (c) Steve Scherf et al.
# Submitted via: dBpowerAMP V4.0
# Normalized: r0:TRMNUM
#
DISCID=8409620a
DTITLE=Texaroma - C'est par ici
DYEAR=2003
DGENRE=Blues
TTITLE0=Good Bad News
TTITLE1=San Antonio Texas
TTITLE2=Kaleidostal
TTITLE3=My Goodness
TTITLE4=L'imparfait Du Présent
TTITLE5=Juste Passe
TTITLE6=L'heure Bleue
TTITLE7=Squeeze The Lemon
TTITLE8=C'est Par Ici
TTITLE9=Bloody French
EXTD=
EXTT0=
EXTT1=
EXTT2=
EXTT3=
EXTT4=
EXTT5=
EXTT6=
EXTT7=
EXTT8=
EXTT9=
PLAYORDER=
